<svg width="16" height="14" viewBox="0 0 16 14" fill="none" xmlns="http://www.w3.org/2000/svg">
<path d="M8.70711 0.500047C8.31658 0.109523 7.68342 0.109521 7.29289 0.500047L0.646447 7.14649C0.451184 7.34176 0.451184 7.65834 0.646447 7.8536C0.841709 8.04886 1.15829 8.04886 1.35355 7.8536L8 1.20715L14.6464 7.8536C14.8417 8.04886 15.1583 8.04886 15.3536 7.8536C15.5488 7.65834 15.5488 7.34176 15.3536 7.14649L13 4.79294V1.50005C13 1.2239 12.7761 1.00005 12.5 1.00005H11.5C11.2239 1.00005 11 1.2239 11 1.50005V2.79294L8.70711 0.500047Z" fill="white"/>
<path d="M8 2.29294L14 8.29294V12.5C14 13.3285 13.3284 14 12.5 14H3.5C2.67157 14 2 13.3285 2 12.5V8.29294L8 2.29294Z" fill="white"/>
</svg>
