<svg width="16" height="10" viewBox="0 0 16 10" fill="none" xmlns="http://www.w3.org/2000/svg">
<path d="M4.98063 1C4.82873 1 4.68508 1.06904 4.59019 1.18765L1.54031 5H6C6.27614 5 6.5 5.22386 6.5 5.5C6.5 6.32843 7.17157 7 8 7C8.82843 7 9.5 6.32843 9.5 5.5C9.5 5.22386 9.72386 5 10 5H14.4597L11.4098 1.18765C11.3149 1.06904 11.1713 1 11.0194 1H4.98063ZM14.9336 6H10.45C10.2184 7.14112 9.20948 8 8 8C6.79052 8 5.78165 7.14112 5.55001 6H1.06639L1.38665 8.56202C1.41792 8.81223 1.63062 9 1.88278 9H14.1172C14.3694 9 14.5821 8.81223 14.6134 8.56202L14.9336 6ZM3.80932 0.562957C4.09398 0.207134 4.52495 0 4.98063 0H11.0194C11.4751 0 11.906 0.207135 12.1907 0.562957L15.8904 5.18765C15.9748 5.29306 16.0129 5.42808 15.9961 5.56202L15.6056 8.68605C15.5118 9.4367 14.8737 10 14.1172 10H1.88278C1.1263 10 0.488198 9.4367 0.394367 8.68605L0.00386313 5.56202C-0.0128795 5.42808 0.0252443 5.29306 0.109568 5.18765L3.80932 0.562957Z" fill="#3940AB"/>
</svg>
